<svg width="141" height="145" viewBox="0 0 141 145" fill="none" xmlns="http://www.w3.org/2000/svg">
<path d="M121.151 1.83383L6.59689 69.7749C-2.87581 75.4107 -1.96709 89.8259 8.1665 94.1023L39.6412 107.498V131.401C39.6412 144.541 55.9431 149.951 63.4882 139.5L75.5494 122.763L106.363 135.847C107.988 136.527 109.695 136.866 111.402 136.866C113.661 136.866 115.891 136.272 117.901 135.111C121.426 133.071 123.849 129.446 124.483 125.34L140.839 15.6826C142.519 4.32604 130.678 -3.80197 121.151 1.83383ZM52.8589 131.401V113.105L62.9375 117.382L52.8589 131.401ZM111.402 123.273L69.0507 105.289L107.657 47.9964C110.604 43.6067 105.041 38.509 101.131 41.9924L42.8906 94.1873L13.2058 81.5563L127.759 13.5869L111.402 123.273Z" fill="black"/>
</svg>
